<svg width="72" height="72" viewBox="0 0 72 72" fill="none" xmlns="http://www.w3.org/2000/svg">
<path d="M36 72C26 72 17.5 68.5 10.5 61.5C3.5 54.5 0 46 0 36C0 26 3.5 17.5 10.5 10.5C17.5 3.5 26 0 36 0C36.5333 0 37.1 0.0166667 37.7 0.05C38.3 0.0833333 39.0667 0.133333 40 0.2C37.6 2.33333 35.7333 4.96667 34.4 8.1C33.0667 11.2333 32.4 14.5333 32.4 18C32.4 24 34.5 29.1 38.7 33.3C42.9 37.5 48 39.6 54 39.6C57.4667 39.6 60.7667 38.9833 63.9 37.75C67.0333 36.5167 69.6667 34.8 71.8 32.6C71.8667 33.4 71.9167 34.05 71.95 34.55C71.9833 35.05 72 35.5333 72 36C72 46 68.5 54.5 61.5 61.5C54.5 68.5 46 72 36 72ZM36 66C43.2667 66 49.6 63.75 55 59.25C60.4 54.75 63.7667 49.4667 65.1 43.4C63.4333 44.1333 61.6444 44.6833 59.7333 45.05C57.8222 45.4167 55.9111 45.6 54 45.6C46.3541 45.6 39.8426 42.9115 34.4655 37.5345C29.0885 32.1574 26.4 25.6459 26.4 18C26.4 16.4 26.5667 14.6833 26.9 12.85C27.2333 11.0167 27.8333 8.93333 28.7 6.6C22.1667 8.4 16.75 12.05 12.45 17.55C8.15 23.05 6 29.2 6 36C6 44.3333 8.91667 51.4167 14.75 57.25C20.5833 63.0833 27.6667 66 36 66Z" fill="black"/>
</svg>
