<svg width="93" height="72" viewBox="0 0 95 88" fill="none" xmlns="http://www.w3.org/2000/svg">
<path d="M46.5821 0.621109C45.254 1.10939 44.1212 1.91017 42.8712 3.21877C41.5821 4.60548 40.8204 5.79689 39.1993 9.03908C37.5391 12.3789 36.4844 13.8438 34.961 14.9961C33.4962 16.0899 32.8907 16.4219 28.1055 18.6485C23.6329 20.7188 21.6602 21.8711 20.0782 23.3164L18.8672 24.4297L18.3008 23.961C13.9649 20.4844 7.10944 23.2383 4.70709 29.4297C3.49615 32.5547 2.01178 38.8828 1.30865 43.9024C0.293029 51.2656 0.410216 58.668 1.60162 62.2813C2.51959 65.0352 4.49225 67.3985 6.836 68.5508C8.12506 69.1953 8.43756 69.2735 9.80475 69.2735C11.1719 69.2735 11.504 69.1953 12.7735 68.5508L14.2188 67.8477L15.918 69.4883C18.7696 72.2422 22.2852 74.3516 26.1524 75.6211C28.6524 76.461 30.4493 76.7735 33.5352 76.9297C38.0469 77.1445 39.1993 77.5547 44.4141 80.836C49.9024 84.2539 55.6055 86.7149 59.8829 87.457C62.168 87.8477 65.5665 87.8477 67.2071 87.4375C69.9219 86.7539 71.9141 85.3672 72.8126 83.5313C73.2813 82.5742 73.3204 82.3008 73.2422 80.8555C73.1641 79.332 72.8321 78.3555 71.7774 76.4024C71.7383 76.3438 72.6172 76.2266 73.711 76.168C79.0821 75.836 82.9493 73.8633 84.5313 70.6406C85.0196 69.6445 85.0977 69.2539 85.0977 67.8281C85.0977 66.4024 85.0196 66.0117 84.5313 65.0156C83.9063 63.7461 82.4024 62.1445 80.879 61.1094L79.8829 60.4453L80.4493 60.3477C80.7422 60.2891 81.5235 60.1719 82.168 60.1133C84.0821 59.8985 86.7969 59.1172 88.4376 58.3164C90.3516 57.3985 92.5001 55.3672 93.2618 53.7656C94.3751 51.461 94.7071 48.375 94.0626 46.3828C93.1251 43.4922 89.8243 41.2461 84.5313 39.918L82.4024 39.3711L83.2618 38.7656C83.7501 38.4531 84.4727 37.8086 84.8829 37.3594C87.3243 34.6446 87.5391 29.7813 85.3712 26.3828C83.9844 24.2344 81.3282 22.4961 78.418 21.8516C76.1915 21.3633 73.3204 21.4805 64.4337 22.418C55.293 23.375 51.9337 23.6875 51.836 23.6094C51.8165 23.5703 52.5001 22.5938 53.379 21.4219C57.6563 15.6797 58.6915 10.2305 56.4258 5.4258C55.5274 3.53127 53.8868 1.79298 52.2266 0.992203C51.1133 0.445328 50.6837 0.347672 49.2579 0.289078C48.0079 0.250015 47.3438 0.32814 46.5821 0.621109ZM50.7813 4.1758C52.4024 4.97658 53.8282 7.39845 54.0626 9.8008C54.2188 11.5 53.6915 13.961 52.7735 15.836C52.3243 16.7344 51.0157 18.7266 49.8438 20.2695C48.6719 21.8125 47.4024 23.6485 47.0118 24.3711C46.0157 26.1289 45.1172 28.7656 44.3946 31.9297C43.6133 35.4453 43.0079 36.6172 40.9766 38.6289C38.4376 41.1485 36.1524 42.0469 32.1485 42.0469C30.254 42.0469 29.9415 42.086 29.5704 42.4375C28.6329 43.3164 28.8868 44.8008 30.0391 45.2891C30.918 45.6602 34.0626 45.6406 35.9376 45.25C39.9024 44.4492 43.3204 42.1055 45.6251 38.6485C46.6212 37.125 47.2462 35.543 47.7149 33.2969C48.1837 30.9727 48.5547 29.5664 49.1016 28.2188L49.4922 27.2031H50.7032C52.2266 27.2031 56.543 26.793 64.6876 25.8946C72.6368 25.0156 77.0313 24.8985 78.7891 25.5625C81.836 26.7344 83.3204 28.7656 83.3204 31.8125C83.3008 35.211 81.1915 36.7735 74.9024 38.0235C72.8712 38.4336 71.8165 38.5313 69.2383 38.5313C64.6876 38.5313 59.8633 39.0977 58.8282 39.7617C57.9688 40.2891 57.8126 41.5586 58.4962 42.3594C59.0626 43.0235 59.5899 43.043 62.1485 42.5352C63.7501 42.2031 64.9024 42.1446 70.4493 42.1446C77.0508 42.1446 78.5743 42.2617 82.4219 43.043C86.7579 43.9219 89.6485 45.3867 90.586 47.1641C90.9571 47.8672 90.9376 49.7422 90.5469 51.0313C89.9415 53.043 88.7696 54.293 86.504 55.3281C83.8868 56.5 81.0938 56.8906 75.3907 56.8906C71.4844 56.8906 71.2501 56.8711 69.2579 56.3047C65.293 55.1914 59.8829 54.332 55.2149 54.0391C53.0665 53.9219 53.0469 53.9219 52.4219 54.4492C51.9337 54.8594 51.7969 55.1133 51.7969 55.6797C51.8165 57.0664 52.3829 57.3789 55.1172 57.5547C66.1915 58.2774 77.3047 61.7735 80.6837 65.6016C82.9102 68.1406 81.1915 70.9727 76.6797 72.2227C75.2149 72.6328 70.8399 72.8281 69.1797 72.5547C68.1446 72.3789 67.4805 72.086 65.5665 70.9336C62.5977 69.1367 59.3165 67.5547 55.1563 65.9336C51.3868 64.4688 50.6055 64.3516 49.9219 65.1524C49.3555 65.8164 49.2969 66.832 49.8047 67.3985C49.9805 67.6328 51.5821 68.3555 53.4962 69.0977C60.3126 71.6953 65.1563 74.3516 67.4024 76.7149C69.7462 79.1953 70.4102 81.4024 69.1797 82.6524C68.2032 83.6094 66.6602 84.0977 64.1602 84.1953C59.3165 84.3711 53.3399 82.2617 46.3477 77.8867C40.6837 74.332 39.1602 73.7852 34.3555 73.4727C32.6563 73.375 30.6446 73.1602 29.8829 73.0039C23.6719 71.6953 17.5977 67.5352 15.3321 63.043C14.6485 61.7149 14.336 60.543 14.1212 58.6094C13.9258 56.8516 13.9649 56.1289 14.4141 53.2383C14.5313 52.4961 14.4727 52.3594 13.9454 51.8125C13.5157 51.3828 13.1641 51.2266 12.6954 51.2266C11.4063 51.2461 10.918 52.1055 10.6055 54.9766C10.3126 57.5352 10.6055 60.3477 11.3868 62.5547C12.168 64.7813 12.168 64.8985 11.3868 65.3672C9.37506 66.5586 6.79694 65.1524 5.31256 62.0664C3.14459 57.5547 4.06256 43.4141 7.18756 33.1016C8.0274 30.3477 8.61334 29.1758 9.74615 27.9649C11.8751 25.6797 15.0391 25.3281 16.7188 27.1836C17.0313 27.5352 17.0508 27.6914 16.8555 28.4531C16.3477 30.4844 16.8751 31.6953 18.2422 31.6953C19.2579 31.6953 19.7071 31.2461 20.1563 29.7813C21.2305 26.168 22.6368 25.0547 30.7032 21.3633C37.6954 18.1406 39.5899 16.3438 42.7344 9.97658C44.2579 6.85158 45.4297 5.28908 46.9141 4.39064C48.2032 3.62892 49.4727 3.5508 50.7813 4.1758Z" fill="black"/>
</svg>
