<svg width="93" height="72" viewBox="0 0 75 72" fill="none" xmlns="http://www.w3.org/2000/svg">
<path d="M23.4571 0.355469C17.1094 1.50781 12.9102 6.15625 12.8907 12.0156V13.3438H12.0704C9.43364 13.3633 5.95708 14.8086 4.10161 16.6641C2.83208 17.9336 1.71879 19.9648 1.36723 21.6836C1.23051 22.3477 1.17192 23.5781 1.23051 24.6719C1.32817 26.7812 1.79692 28.207 2.85161 29.75C3.61333 30.8633 3.63286 30.9609 3.18364 31.332C2.67583 31.7617 1.6602 33.4609 1.17192 34.7305C0.625044 36.1562 0.507857 39.3984 0.957076 40.9805C1.56254 43.168 3.04692 45.5508 4.60942 46.8984C5.42973 47.582 5.46879 47.6797 5.27348 48.1875C5.17583 48.4805 4.98051 49.3398 4.86333 50.082C4.17973 54.5547 6.95317 59.125 11.3672 60.8242C12.4219 61.2148 12.4805 61.2734 12.3438 61.7617C12.0704 62.7773 12.2266 65.1602 12.6758 66.4688C13.4766 68.8516 15.0977 70.4922 17.5586 71.3711C18.8086 71.8203 18.9844 71.8398 25.1954 71.8398C31.8946 71.8203 34.4727 71.6445 39.3555 70.8633C50.625 69.0469 57.8516 65.0039 60.9571 58.7344C61.7188 57.2109 62.0508 56.7227 62.2657 56.8008C66.7188 58.5 71.0743 55.2383 72.9297 48.8125C74.2383 44.3203 74.6875 38.1094 74.2188 31.4102C73.75 25.043 72.4415 20.7656 70.1563 18.2266C67.9688 15.7852 64.8829 15.1016 62.1875 16.4688C61.7774 16.6836 61.3868 16.8594 61.3282 16.8594C61.25 16.8594 60.8008 16.2148 60.293 15.4336C58.0274 11.8398 53.7696 8.92969 48.7305 7.50391C47.8516 7.25 44.9219 5.96094 41.9922 4.55469C36.4649 1.85938 33.8086 0.863281 30.879 0.375C28.6719 0.00390625 25.4493 0.00390625 23.4571 0.355469ZM30.0782 3.77344C32.5586 4.16406 35.6446 5.31641 40.4102 7.67969C43.418 9.18359 45.9571 10.2773 47.5782 10.8242C53.1055 12.6211 56.2891 14.9648 57.9883 18.4609C58.9844 20.5117 59.1993 21.7031 59.1407 24.7695C59.0821 27.7969 59.1993 28.207 60.1758 28.5586C60.625 28.7148 60.918 28.6953 61.4258 28.5C62.5 28.0508 62.5977 27.6797 62.6172 23.9102L62.6563 20.4922L63.1641 20.043C64.9805 18.5 67.3047 19.4766 68.75 22.4062C70 24.9453 70.625 28.6172 70.8204 34.4375C71.0938 42.4453 69.8633 49.1055 67.5782 51.9961C66.6211 53.207 65.3321 53.8711 64.2969 53.6758C62.8516 53.4219 62.7735 53.2656 62.6172 50.8047C62.3829 46.8203 62.0508 46.0586 60.5274 46.0586C59.8829 46.0586 59.629 46.1758 59.2383 46.625C58.7891 47.1719 58.7696 47.2695 58.9258 48.5781C59.1602 50.5508 59.1016 53.3047 58.8086 54.5547C58.6719 55.1406 58.2032 56.3711 57.7735 57.25C54.2383 64.4961 42.5391 68.4023 24.4141 68.4219C19.8633 68.4219 18.711 68.2461 17.5 67.4258C15.7618 66.2344 15.1758 63.3047 16.2696 61.2148C16.9141 59.9648 16.9336 59.2227 16.3477 58.5391C15.9766 58.1094 15.6836 58.0117 14.4532 57.875C12.6758 57.6992 11.4063 57.1328 10.2344 55.9805C8.20317 54.0273 7.75395 51.332 8.96489 48.4609C9.74614 46.5859 9.66801 46.1367 8.28129 45.2188C5.39067 43.2852 3.86723 40.4336 4.17973 37.5039C4.35551 35.707 5.07817 34.3594 6.6602 32.8555C7.83208 31.7227 8.00786 31.4688 8.00786 30.8438C8.00786 30.2578 7.83208 29.9844 6.87504 29.0273C5.31254 27.4648 4.82426 26.3711 4.72661 24.2812C4.62895 22.2109 5.0977 20.8438 6.3477 19.457C9.12114 16.3516 14.336 16 21.6993 18.4023C23.5743 19.0078 24.2969 19.1641 24.629 19.0273C25.8985 18.5391 26.2696 16.9766 25.3125 16.1367C24.6875 15.6094 20.5665 14.2617 18.125 13.793L16.3477 13.4609L16.4454 11.7617C16.6602 7.97266 19.004 5.17969 22.8516 4.08594C23.4375 3.92969 24.1993 3.75391 24.5118 3.71484C25.7227 3.55859 28.8477 3.59766 30.0782 3.77344Z" fill="black"/>
</svg>
