<svg width="93" height="72" viewBox="0 0 100 73" fill="none" xmlns="http://www.w3.org/2000/svg">
<path d="M56.7421 1.082C59.3007 1.31638 64.0663 2.17575 66.9179 2.93747C71.039 4.01169 73.9687 5.24216 76.8007 7.07809C78.1484 7.97653 81.332 10.9648 82.1132 12.0781L82.5234 12.664L83.1484 12.1172C84.496 10.9843 85.6484 10.5547 87.3476 10.5547C88.6952 10.5351 89.0859 10.6132 90.1992 11.1406C95.1992 13.5234 98.1679 21.5898 98.9882 35.0468C99.5351 44.207 98.0898 51.0039 94.8476 54.4804C93.1484 56.2968 91.9765 56.8242 89.6913 56.8242C88.1484 56.8242 87.7968 56.7461 86.8007 56.2578C86.1757 55.9648 85.6484 55.75 85.6093 55.7695C85.5898 55.8086 85.1406 56.4922 84.6327 57.2734C80.2382 63.9531 71.4492 68.6406 63.2851 68.6406H61.039L59.8281 69.5586C58.4413 70.5937 55.6484 71.9804 53.9492 72.4492C52.1718 72.9375 47.8163 73.0742 46.2343 72.664C42.582 71.7461 39.8281 69.4023 38.871 66.375L38.5585 65.3789L37.0351 65.0468C34.0859 64.4219 31.1562 62.4883 29.7695 60.3008C27.9726 57.4687 28.0312 53.7187 29.9257 50.5937C30.2968 49.9687 30.5898 49.4218 30.5703 49.4023C30.5312 49.3828 29.2421 49.5 27.6796 49.6367C23.3242 50.0468 15.0234 50.0273 12.1523 49.6172C7.44524 48.9336 5.06243 48.0742 3.18743 46.3554C-0.640694 42.8593 -0.406319 36.082 3.65618 31.9414C6.05853 29.5 9.16399 28.5039 15.6679 28.0547L17.621 27.9179L16.4687 27.3711C13.4804 25.9843 10.6093 23.5429 9.45696 21.414C7.09368 17.039 9.1054 11.0625 13.7734 8.62106C18.9882 5.86716 28.2656 6.31638 38.7734 9.81247L40.9609 10.5547L41.7421 8.97262C44.5546 3.13278 49.6913 0.437469 56.7421 1.082ZM51.6054 4.89059C48.2265 5.71091 46.0195 7.76169 44.3984 11.5703C43.5195 13.6601 42.5624 15.0078 39.7109 18.1523C36.1757 22.039 36.0781 22.3711 38.0507 24.1875C41.0195 26.9414 45.1601 27.8203 48.2656 26.375C51.2734 24.9883 54.4765 21.1601 54.9257 18.3867C55.121 17.3125 55.7851 16.6875 56.7421 16.6875C57.9335 16.6875 58.4023 17.332 58.4609 18.9922C58.4999 20.6718 58.6757 21.4336 59.2617 22.6445C60.6288 25.3203 63.207 27.0781 66.5859 27.6054C67.5234 27.7617 67.914 27.9375 68.246 28.3086C68.8906 29.0312 68.832 29.8711 68.0898 30.5937C67.5234 31.1797 67.4648 31.1992 66.1757 31.0625C62.5429 30.7304 58.8124 28.5234 56.8593 25.5156C56.4687 24.9101 56.0976 24.3633 56.0585 24.3242C56.0195 24.2656 55.8437 24.4414 55.6679 24.7148C54.3984 26.5312 51.8593 28.582 49.6523 29.5976C48.6757 30.0468 48.3827 30.2422 48.5585 30.4179C48.9296 30.789 48.8124 31.8633 48.3046 32.4492L47.8163 32.9961L45.2187 32.957C43.7929 32.9179 39.8867 32.6836 36.5663 32.4101C27.582 31.6875 24.5156 31.5312 19.8085 31.5312C13.6757 31.5312 10.0624 32.0195 7.83587 33.1328C5.27728 34.4023 3.53899 37.957 4.06634 40.8672C4.7304 44.4609 7.60149 45.8281 15.6874 46.3945C19.3398 46.6484 24.3007 46.4531 31.1562 45.7695L35.1796 45.3593L36.6445 44.4804C39.6132 42.664 43.3632 41.1406 47.1132 40.1836C49.7499 39.539 54.1054 39.3437 56.0781 39.8125C58.0312 40.2812 59.5546 41.1601 60.9023 42.6445C63.4218 45.3984 64.164 48.289 63.1484 51.3359L62.621 52.8789L63.5976 53.875C66.0976 56.414 66.4296 59.9492 64.5351 63.7969L63.8906 65.125H64.5546C65.7265 65.125 69.1054 64.3437 70.9218 63.6406C71.8984 63.2695 73.4023 62.5664 74.2617 62.0586C82.0546 57.5859 85.7265 50.3984 84.1249 42.7031C83.8906 41.4922 83.8124 40.7109 83.9296 40.4179C84.3398 39.3242 85.9218 38.9726 86.7421 39.8125C87.5429 40.5937 87.9335 42.8593 87.914 46.375C87.914 48.7578 87.8163 49.6953 87.5038 50.8281C87.0742 52.4101 87.0937 52.4492 88.3632 53.0937C89.7109 53.7773 91.2734 53.3476 92.4452 51.9609C95.3359 48.582 96.2734 40.2226 94.9452 29.539C93.9492 21.4531 91.6249 15.75 88.7538 14.3633C87.3281 13.6797 86.2538 13.914 85.2187 15.125C84.5742 15.9062 84.5742 16.1601 85.3163 18.2109C86.4101 21.3164 87.2304 25.7304 87.2499 28.5429C87.2499 29.6367 87.2109 29.7734 86.6445 30.2422C85.9609 30.8281 85.5117 30.8672 84.7109 30.457C84.0273 30.1054 83.8124 29.4414 83.6367 27.2343C83.2851 22.8008 82.0742 18.6015 80.2968 15.6718C76.8984 10.0859 71.0195 6.96091 60.6093 5.16403C56.0195 4.38278 53.9687 4.32419 51.6054 4.89059ZM17.7968 10.8281C14.4179 11.6875 12.621 13.4648 12.0546 16.4531C11.0195 22.0195 19.2812 26.3945 34.9453 28.582C38.9101 29.1484 38.8906 29.1484 37.1718 28.0156C34.1054 25.9648 32.8359 23.7187 33.3437 21.2578C33.6367 19.8711 34.6523 18.3867 37.0351 15.8476C38.1093 14.6758 39.0077 13.6992 39.0077 13.6601C39.0077 13.5234 34.8476 12.2343 32.7578 11.7265C26.7031 10.2617 21.2734 9.94918 17.7968 10.8281ZM48.7929 43.4453C46.1367 43.9922 44.2031 44.6562 41.371 46.0039C36.9374 48.1328 33.7734 50.6328 32.6601 52.9179C31.4687 55.3398 31.8788 57.8008 33.7343 59.539C36.4296 62.0586 40.4726 62.4883 45.6484 60.8086C49.3398 59.5976 54.6132 56.375 57.3867 53.6211C59.2031 51.8047 59.9062 50.5937 60.0624 49.1093C60.1796 47.8984 59.8671 47.0195 58.832 45.6328C57.914 44.3633 56.957 43.6797 55.6093 43.3281C54.2226 42.9375 50.9609 42.9961 48.7929 43.4453ZM55.1406 59.8711C51.2538 62.4883 47.1523 64.3047 43.6367 64.9687C42.0937 65.2617 42.0156 65.457 42.9726 66.7265C43.6952 67.6836 45.1406 68.7187 46.1952 69.0508C46.5859 69.1679 47.8554 69.3242 49.0077 69.3633C51.6249 69.4804 53.4218 69.1289 55.6679 68.0156C58.9296 66.3945 61.9374 62.5468 62.1913 59.6562C62.3281 58.2304 61.8984 56.9609 61.039 56.2383L60.4531 55.75L58.9687 57.039C58.1484 57.7422 56.4296 59.0312 55.1406 59.8711Z" fill="black"/>
</svg>
